<?xml version="1.0" encoding="UTF-8"?>
<svg id="Layer_3" data-name="Layer 3" xmlns="http://www.w3.org/2000/svg" viewBox="0 0 924.38 336.27">
  <path d="m211.65,158.13c2.43-3.31,4-6.85,4.66-10.5l1.43-7.82c1.51-8.32-.46-15.05-5.87-19.99-5.32-4.86-13.18-7.32-23.35-7.32h-55.77l-8.27,45.36h-17.57l-3.78,20.52h17.6l-5.51,30.25c-.87,4.74-.02,8.64,2.52,11.6,2.52,2.95,6.25,4.44,11.07,4.44h44.58c10.8,0,20.01-2.65,27.39-7.89,7.47-5.3,12.08-12.52,13.71-21.45l1.48-8.13c.94-5.18.16-9.93-2.32-14.12-2.11-3.55-5.14-6.29-9.04-8.16,2.74-1.87,5.1-4.15,7.03-6.79Zm-19.94,29.07l-1.25,6.88c-.53,2.91-1.97,5.08-4.41,6.66-2.56,1.64-6.02,2.48-10.29,2.48h-35.25l4.53-24.84h37.6c3.3,0,5.8.84,7.43,2.49,1.6,1.62,2.14,3.7,1.66,6.33Zm1.33-45.04l-.97,5.32c-.58,3.21-1.93,5.69-4.13,7.58-2.18,1.88-4.7,2.8-7.68,2.8h-31.5l4.36-23.9h30.72c3.33,0,5.85.77,7.51,2.29,1.6,1.46,2.15,3.39,1.69,5.9Z" style="fill: #fff;"/>
  <path d="m299.98,145.32c-4.74-2.69-10.57-4.06-17.32-4.06h-14.08c-6.75,0-13.07,1.37-18.79,4.06-5.76,2.71-10.62,6.59-14.45,11.54-3.83,4.93-6.35,10.66-7.51,17.03l-3.34,18.3c-1.16,6.37-.74,12.07,1.24,16.95,1.99,4.9,5.42,8.73,10.21,11.39,4.74,2.64,10.56,3.98,17.32,3.98h14.07c6.86,0,13.23-1.34,18.93-3.98,5.75-2.66,10.6-6.49,14.43-11.38,3.82-4.88,6.34-10.59,7.51-16.96l3.34-18.3c1.16-6.37.72-12.1-1.31-17.03-2.03-4.94-5.48-8.82-10.25-11.54Zm-42.58,58.19c-3.27,0-5.64-1.15-7.25-3.52-1.65-2.43-2.1-5.54-1.38-9.52l2.77-15.17c.72-3.92,2.35-7.13,4.85-9.52,2.47-2.37,5.32-3.52,8.69-3.52h13.45c3.37,0,5.8,1.15,7.41,3.52,1.63,2.4,2.09,5.6,1.38,9.52l-2.77,15.17c-.71,3.92-2.35,7.13-4.85,9.52-2.48,2.37-5.37,3.52-8.85,3.52h-13.45Z" style="fill: #fff;"/>
  <path d="m393.22,145.32c-4.74-2.69-10.57-4.06-17.32-4.06h-14.07c-6.75,0-13.08,1.37-18.79,4.06-5.75,2.71-10.62,6.59-14.45,11.54-3.83,4.93-6.35,10.66-7.51,17.03l-3.34,18.3c-1.16,6.37-.74,12.07,1.24,16.95,1.99,4.9,5.43,8.73,10.21,11.39,4.74,2.64,10.56,3.98,17.32,3.98h14.08c6.86,0,13.22-1.34,18.93-3.98,5.75-2.66,10.6-6.49,14.43-11.38,3.82-4.88,6.34-10.59,7.51-16.96l3.34-18.3c1.16-6.37.72-12.1-1.31-17.03-2.03-4.94-5.48-8.82-10.25-11.54Zm-51.21,45.14l2.77-15.17c.72-3.92,2.35-7.13,4.85-9.52,2.47-2.37,5.32-3.52,8.69-3.52h13.45c3.38,0,5.8,1.15,7.41,3.52,1.63,2.4,2.09,5.6,1.38,9.52l-2.77,15.17c-.71,3.92-2.35,7.13-4.85,9.52-2.47,2.37-5.37,3.52-8.85,3.52h-13.45c-3.27,0-5.64-1.15-7.25-3.52-1.65-2.43-2.1-5.54-1.38-9.52Z" style="fill: #fff;"/>
  <polygon points="501.11 143.77 472.57 143.77 438.35 172.97 449.4 112.33 425.44 112.33 404.99 224.5 428.95 224.5 433.29 200.72 441.35 193.9 459.64 224.5 487.12 224.5 459.86 178.39 501.11 143.77" style="fill: #fff;"/>
  <path d="m561.77,175.24l-23.17-62.9h-21.37l-20.44,112.16h23.8l11.92-65.41,13.72,37.04c.59,1.6,1.27,2.99,2.02,4.15l.06.1c.59.9,1.21,1.64,1.88,2.21,1.6,1.36,3.61,2.05,5.98,2.05h.47c2.38,0,4.64-.69,6.73-2.06.9-.59,1.8-1.33,2.64-2.18,1.17-1.12,2.41-2.56,3.68-4.28l27.21-37.04-11.92,65.41h23.81l20.44-112.16h-21.38l-46.09,62.9Z" style="fill: #fff;"/>
  <path d="m704.34,150.07c-5.21-5.84-13.09-8.81-23.4-8.81h-12.51c-6.75,0-13.07,1.37-18.79,4.06-5.76,2.71-10.61,6.57-14.43,11.45-3.82,4.88-6.35,10.59-7.51,16.96l-3.68,20.17c-1.09,5.97-.57,11.34,1.52,15.97,2.1,4.63,5.59,8.27,10.39,10.81,4.75,2.53,10.59,3.81,17.33,3.81h11.89c6.72,0,12.98-1.14,18.59-3.39,5.69-2.28,10.46-5.6,14.18-9.86,3.22-3.69,5.45-7.87,6.64-12.45h-23.94c-.65,1.16-1.63,2.16-2.98,3.02-2.26,1.44-5.1,2.17-8.45,2.17h-12.2c-3.43,0-5.87-.91-7.48-2.76-1.6-1.83-2.1-4.23-1.54-7.31l.44-2.41h57.86l3.27-17.92c1.77-9.73.02-17.64-5.22-23.51Zm-18.41,23.41h-34.52c.79-3.52,2.35-6.39,4.65-8.56,2.47-2.32,5.31-3.45,8.69-3.45h12.67c3.28,0,5.62,1.06,7.17,3.23,1.56,2.2,2,5.07,1.34,8.79Z" style="fill: #fff;"/>
  <polygon points="809.3 170.77 779.37 170.77 784.24 144.09 761.58 144.09 756.71 170.77 727.76 170.77 723.51 193.7 752.54 193.7 747.48 221.42 770.14 221.42 775.2 193.7 805.07 193.7 809.3 170.77" style="fill: #6444d8;"/>
</svg>