<svg width="836" height="615" viewBox="0 0 836 615" fill="none" xmlns="http://www.w3.org/2000/svg">
<path d="M271.75 41.73H511.82V188.39L538.53 135.04V28.34C538.53 24.802 537.125 21.4089 534.623 18.9072C532.121 16.4054 528.728 15 525.19 15H258.41C254.874 15.0027 251.483 16.4093 248.984 18.9107C246.484 21.4122 245.08 24.8037 245.08 28.34V308.43H271.75V41.73Z" fill="white"/>
<path d="M485.15 81.73C485.15 78.192 483.744 74.7989 481.242 72.2972C478.741 69.7954 475.348 68.39 471.81 68.39H311.81C310.054 68.3847 308.315 68.7259 306.692 69.3939C305.069 70.062 303.594 71.0438 302.351 72.283C301.108 73.5223 300.122 74.9946 299.449 76.6157C298.776 78.2368 298.43 79.9748 298.43 81.73V135.08C298.428 136.831 298.772 138.566 299.441 140.184C300.111 141.803 301.092 143.273 302.33 144.512C303.568 145.751 305.038 146.734 306.656 147.404C308.274 148.075 310.008 148.42 311.76 148.42H471.76C475.298 148.42 478.691 147.014 481.193 144.513C483.694 142.011 485.1 138.618 485.1 135.08L485.15 81.73ZM458.53 121.73H325.1V95.03H458.53V121.73Z" fill="white"/>
<path d="M325.1 215.06C339.829 215.06 351.77 203.119 351.77 188.39C351.77 173.661 339.829 161.72 325.1 161.72C310.37 161.72 298.43 173.661 298.43 188.39C298.43 203.119 310.37 215.06 325.1 215.06Z" fill="white"/>
<path d="M325.1 281.75C339.829 281.75 351.77 269.809 351.77 255.08C351.77 240.35 339.829 228.41 325.1 228.41C310.37 228.41 298.43 240.35 298.43 255.08C298.43 269.809 310.37 281.75 325.1 281.75Z" fill="white"/>
<path d="M391.789 215.06C406.519 215.06 418.459 203.119 418.459 188.39C418.459 173.661 406.519 161.72 391.789 161.72C377.06 161.72 365.119 173.661 365.119 188.39C365.119 203.119 377.06 215.06 391.789 215.06Z" fill="white"/>
<path d="M391.789 281.75C406.519 281.75 418.459 269.809 418.459 255.08C418.459 240.35 406.519 228.41 391.789 228.41C377.06 228.41 365.119 240.35 365.119 255.08C365.119 269.809 377.06 281.75 391.789 281.75Z" fill="white"/>
<path d="M458.479 215.06C473.208 215.06 485.149 203.119 485.149 188.39C485.149 173.661 473.208 161.72 458.479 161.72C443.749 161.72 431.809 173.661 431.809 188.39C431.809 203.119 443.749 215.06 458.479 215.06Z" fill="white"/>
<path d="M89.3701 518.37H41.95V468.47H5V601.79H41.95V551.13H89.3701V601.79H126.32V468.47H89.3701V518.37Z" fill="white"/>
<path d="M212.6 465.81C171.46 465.81 140.6 496.81 140.6 535.13V535.51C140.6 573.79 171.07 604.51 212.21 604.51C253.35 604.51 284.21 573.51 284.21 535.18V534.73C284.21 496.47 253.73 465.81 212.6 465.81ZM246.5 535.51C246.5 554.75 232.97 571.13 212.6 571.13C192.41 571.13 178.51 554.37 178.51 535.13V534.73C178.51 515.5 192.03 499.12 212.22 499.12C232.59 499.12 246.5 515.88 246.5 535.12V535.51Z" fill="white"/>
<path d="M416.949 514.37V513.99C416.949 500.85 412.949 490.57 405.149 482.99C396.149 473.85 382.149 468.51 361.719 468.51H298.719V601.83H335.629V561.45H351.819L378.669 601.83H421.329L389.529 555.32C406.099 548.27 416.949 534.73 416.949 514.37ZM379.819 516.66C379.819 526.37 372.579 532.47 360.009 532.47H335.629V500.47H359.819C372.199 500.47 379.819 505.8 379.819 516.28V516.66Z" fill="white"/>
<path d="M547.019 515.73V515.34C547.019 485.83 525.309 468.49 491.599 468.49H434.469V601.81H471.409V563.73H489.699C522.839 563.73 547.019 547.13 547.019 515.73ZM510.019 517.44C510.019 527.92 502.019 534.77 488.879 534.77H471.359V499.54H488.689C502.029 499.54 510.019 505.63 510.019 517.06V517.44Z" fill="white"/>
<path d="M587.039 467.52L530.279 601.79H569.129L578.649 577.98H630.079L639.789 601.79H679.399L622.649 467.52H587.039ZM589.509 549.23L604.509 511.33L619.359 549.23H589.509Z" fill="white"/>
<path d="M746.449 465.81C705.309 465.81 674.449 496.81 674.449 535.13V535.51C674.449 573.79 704.919 604.51 746.059 604.51C787.199 604.51 818.059 573.51 818.059 535.18V534.73C818.059 496.47 787.579 465.81 746.449 465.81ZM780.349 535.51C780.349 554.75 766.819 571.13 746.449 571.13C726.259 571.13 712.359 554.37 712.359 535.13V534.73C712.359 515.5 725.879 499.12 746.069 499.12C766.439 499.12 780.349 515.88 780.349 535.12V535.51Z" fill="white"/>
<path d="M469.229 378.44C544.859 341.76 589.939 274.63 638.159 178.2L644.159 166.27L572.529 130.49L566.529 142.41C476.729 322.02 431.659 335.1 191.679 335.1H178.389V415.1H191.729C313.639 415.13 398.819 412.57 469.229 378.44ZM205.069 361.73C435.409 361.1 494.259 342.49 584.419 166.22L608.279 178.14C564.829 263.14 523.399 322.5 457.589 354.4C394.789 384.85 316.189 388.2 205.069 388.4V361.73Z" fill="white"/>
</svg>
